<?xml version="1.0" encoding="utf-8"?>
<!-- Svg Vector Icons : http://www.onlinewebfonts.com/icon -->
<!DOCTYPE svg PUBLIC "-//W3C//DTD SVG 1.1//EN" "http://www.w3.org/Graphics/SVG/1.1/DTD/svg11.dtd">
<svg version="1.1" xmlns="http://www.w3.org/2000/svg" xmlns:xlink="http://www.w3.org/1999/xlink" x="0px" y="0px" viewBox="0 0 256 256" enable-background="new 0 0 256 256" xml:space="preserve">
<metadata> Svg Vector Icons : http://www.onlinewebfonts.com/icon </metadata>
<g><g><path fill="#000000" d="M15.9,10v236V10z"/><path fill="#000000" d="M21.8,10v236V10z"/><path fill="#000000" d="M27.7,10v236V10z"/><path fill="#000000" d="M33.6,10v236V10z"/><path fill="#000000" d="M39.5,10v236V10z"/><path fill="#000000" d="M45.4,10v236V10z"/><path fill="#000000" d="M51.3,10v236V10z"/><path fill="#000000" d="M57.2,10v236V10z"/><path fill="#000000" d="M63.1,10v236V10z"/><path fill="#000000" d="M69,10v236V10z"/><path fill="#000000" d="M74.9,10v236V10z"/><path fill="#000000" d="M80.8,10v236V10z"/><path fill="#000000" d="M86.7,10v236V10z"/><path fill="#000000" d="M92.6,10v236V10z"/><path fill="#000000" d="M98.5,10v236V10z"/><path fill="#000000" d="M104.4,10v236V10z"/><path fill="#000000" d="M110.3,10v236V10z"/><path fill="#000000" d="M116.2,10v236V10z"/><path fill="#000000" d="M122.1,10v236V10z"/><path fill="#000000" d="M128,10v236V10z"/><path fill="#000000" d="M133.9,10v236V10z"/><path fill="#000000" d="M139.8,10v236V10z"/><path fill="#000000" d="M145.7,10v236V10z"/><path fill="#000000" d="M151.6,10v236V10z"/><path fill="#000000" d="M157.5,10v236V10z"/><path fill="#000000" d="M163.4,10v236V10z"/><path fill="#000000" d="M169.3,10v236V10z"/><path fill="#000000" d="M175.2,10v236V10z"/><path fill="#000000" d="M181.1,10v236V10z"/><path fill="#000000" d="M187,10v236V10z"/><path fill="#000000" d="M192.9,10v236V10z"/><path fill="#000000" d="M198.8,10v236V10z"/><path fill="#000000" d="M204.7,10v236V10z"/><path fill="#000000" d="M210.6,10v236V10z"/><path fill="#000000" d="M216.5,10v236V10z"/><path fill="#000000" d="M222.4,10v236V10z"/><path fill="#000000" d="M228.3,10v236V10z"/><path fill="#000000" d="M234.2,10v236V10z"/><path fill="#000000" d="M240.1,10v236V10z"/><path fill="#000000" d="M10,15.9h236H10z"/><path fill="#000000" d="M10,21.8h236H10z"/><path fill="#000000" d="M10,27.7h236H10z"/><path fill="#000000" d="M10,33.6h236H10z"/><path fill="#000000" d="M10,39.5h236H10z"/><path fill="#000000" d="M10,45.4h236H10z"/><path fill="#000000" d="M10,51.3h236H10z"/><path fill="#000000" d="M10,57.2h236H10z"/><path fill="#000000" d="M10,63.1h236H10z"/><path fill="#000000" d="M10,69h236H10z"/><path fill="#000000" d="M10,74.9h236H10z"/><path fill="#000000" d="M10,80.8h236H10z"/><path fill="#000000" d="M10,86.7h236H10z"/><path fill="#000000" d="M10,92.6h236H10z"/><path fill="#000000" d="M10,98.5h236H10z"/><path fill="#000000" d="M10,104.4h236H10z"/><path fill="#000000" d="M10,110.3h236H10z"/><path fill="#000000" d="M10,116.2h236H10z"/><path fill="#000000" d="M10,122.1h236H10z"/><path fill="#000000" d="M10,128h236H10z"/><path fill="#000000" d="M10,133.9h236H10z"/><path fill="#000000" d="M10,139.8h236H10z"/><path fill="#000000" d="M10,145.7h236H10z"/><path fill="#000000" d="M10,151.6h236H10z"/><path fill="#000000" d="M10,157.5h236H10z"/><path fill="#000000" d="M10,163.4h236H10z"/><path fill="#000000" d="M10,169.3h236H10z"/><path fill="#000000" d="M10,175.2h236H10z"/><path fill="#000000" d="M10,181.1h236H10z"/><path fill="#000000" d="M10,187h236H10z"/><path fill="#000000" d="M10,192.9h236H10z"/><path fill="#000000" d="M10,198.8h236H10z"/><path fill="#000000" d="M10,204.7h236H10z"/><path fill="#000000" d="M10,210.6h236H10z"/><path fill="#000000" d="M10,216.5h236H10z"/><path fill="#000000" d="M10,222.4h236H10z"/><path fill="#000000" d="M10,228.3h236H10z"/><path fill="#000000" d="M10,234.2h236H10z"/><path fill="#000000" d="M10,240.1h236H10z"/><path fill="#000000" d="M168.3,99.7c3.2-3.2,8.4-3.2,11.6,0c3.2,3.2,3.2,8.3,0,11.4l-46.1,45.2c-3.2,3.2-8.4,3.2-11.6,0l-46.1-45.2c-3.2-3.2-3.2-8.3,0-11.4c3.2-3.2,8.4-3.2,11.6,0l40.3,37.1L168.3,99.7z"/></g></g>
</svg>