<?xml version="1.0" encoding="utf-8"?>
<!DOCTYPE svg PUBLIC "-//W3C//DTD SVG 1.0//EN" "http://www.w3.org/TR/2001/REC-SVG-20010904/DTD/svg10.dtd">
<svg version="1.0" xmlns="http://www.w3.org/2000/svg" width="225px" height="139px" viewBox="0 0 225 139" preserveAspectRatio="xMidYMid meet">
 <g fill="#333232">
  <path d="M207.30 138.20 c-0.15 -0.45 -0.30 -11.25 -0.30 -24 0 -23.20 0 -23.20 -5.70 -23.20 -5.50 0 -5.70 -0.05 -7 -1.35 -1.35 -1.35 -1.35 -1.35 -1.25 -14 0.10 -11.95 -0.15 -15.30 -0.85 -11.75 -0.45 2.15 -4.20 6.10 -8.60 9 -3.65 2.40 -3.65 2.40 -3.75 12.65 -0.10 10.20 -0.10 10.20 -9.20 10.35 -9.15 0.10 -9.15 0.10 -9.15 -10.05 0 -11.55 0.55 -10.15 -5.35 -14.05 -3.70 -2.45 -6.20 -5.30 -7.45 -8.55 -0.70 -1.95 -0.75 -4.10 -0.30 -21.80 0.30 -10.85 0.50 -23.35 0.55 -27.80 0 -7.10 0.15 -8.35 1 -10.05 1.10 -2.20 1.80 -2.60 4.30 -2.60 1.85 0 3.60 1.45 4 3.25 0.15 0.55 0.45 8.30 0.70 17.25 0.25 8.95 0.65 17.10 0.85 18.15 0.20 1.20 0.75 2.20 1.55 2.70 1.15 0.75 1.30 0.75 2.30 -0.30 1 -1 1.15 -1.75 1.50 -10.45 0.95 -24.70 1.15 -27.90 1.50 -28.65 0.25 -0.45 0.95 -1.10 1.65 -1.45 0.65 -0.35 1.20 -0.85 1.20 -1.10 0 -0.80 1.75 -0.35 3.10 0.80 2.35 2.10 2.85 3.70 2.90 9.85 0.05 3.15 0.25 11.20 0.40 17.85 0.35 11.95 0.35 12.20 1.50 13.10 1.45 1.20 3.30 0.50 4.05 -1.45 0.25 -0.70 0.65 -9.35 0.90 -19.15 0.40 -17.80 0.40 -17.80 1.60 -19.10 1.50 -1.60 4.95 -1.85 6.15 -0.40 1.70 1.90 1.80 3.15 2.10 18.85 0.35 18.30 0.70 24.25 1.35 24.25 0.25 0 0.45 -0.75 0.45 -1.60 0.05 -1.70 0.90 -5.75 2.15 -10.20 1 -3.45 6.60 -14.90 8.30 -16.85 0.80 -0.90 1.50 -1.85 1.60 -2.15 0.50 -1.40 6.10 -7.15 9.75 -10 4.55 -3.55 6.40 -4.05 8.20 -2.10 1 1.10 1 1.10 0.90 68.20 -0.15 55.95 -0.25 67.20 -0.85 67.85 -0.55 0.75 -1.85 0.85 -8.55 0.85 -6.75 0 -7.95 -0.10 -8.20 -0.80z"/>
  <path d="M67 80.30 c-4.80 -1.55 -9.15 -5.95 -10.90 -10.90 -1.45 -4.35 -1.55 -11.90 -0.15 -15.70 2.70 -7.45 8.45 -11.70 15.70 -11.70 4.85 0 8.45 1.60 11.70 5.15 3.35 3.60 4.65 7.25 4.65 12.90 0 3.95 0 3.95 -13 3.95 -14.55 0 -13.90 -0.20 -12.25 3.55 1.90 4.35 5.35 6.55 10.25 6.55 3.30 0 4.50 -0.45 8.30 -2.95 1.35 -0.85 1.35 -0.85 3.55 2.25 0.75 1.05 0.70 1.20 -0.40 2.40 -1.80 1.95 -4.95 3.95 -7.25 4.60 -2.55 0.75 -7.85 0.70 -10.20 -0.10z m14.15 -22.70 c0.45 -0.70 -1.10 -4.20 -2.50 -5.70 -1.80 -1.90 -4.20 -2.90 -6.95 -2.90 -2.15 0 -6.20 1.50 -7.10 2.65 -1.10 1.35 -2.60 4.45 -2.60 5.35 0 0.95 0.40 1 9.45 1 5.25 0 9.60 -0.15 9.70 -0.40z"/>
  <path d="M103.20 80.30 c-3.90 -1.40 -7.70 -5.05 -9.40 -9.05 -2.45 -5.60 -2.45 -13.90 0 -19.50 4.30 -9.95 16.60 -13 24.05 -5.90 1 0.90 1.85 1.65 1.95 1.65 0.10 0 0.20 -1 0.20 -2.25 0 -2.25 0 -2.25 3.50 -2.25 3.50 0 3.50 0 3.50 18.50 0 18.50 0 18.50 -3.50 18.50 -3.50 0 -3.50 0 -3.50 -2.25 0 -1.25 -0.10 -2.25 -0.20 -2.25 -0.10 0 -0.95 0.75 -1.95 1.65 -2.85 2.70 -5.80 3.85 -9.70 3.80 -1.90 -0.05 -4.10 -0.30 -4.95 -0.65z m12.25 -8.70 c6 -4.90 5.95 -15.40 -0.15 -20.30 -1.70 -1.40 -2.20 -1.55 -5.45 -1.55 -2.45 0 -4.10 0.30 -5.20 0.90 -3.90 2.10 -6.45 8.95 -5.20 13.85 0.95 3.60 1.90 5.30 3.85 6.90 2.15 1.70 3.70 2.10 7.45 1.80 2.30 -0.15 3.35 -0.50 4.70 -1.60z"/>
  <path d="M0.75 79.40 c-0.15 -0.35 -0.20 -11.80 -0.15 -25.40 0.15 -24.75 0.15 -24.75 4.20 -24.90 4.10 -0.15 4.10 -0.15 8.70 11.50 2.55 6.40 5.05 12.60 5.55 13.75 0.50 1.20 0.95 2.30 0.95 2.55 0 0.25 0.45 1.35 1 2.50 0.55 1.10 1 2.25 1 2.50 0 0.20 0.45 1.35 1 2.50 0.55 1.10 1 2.40 1 2.80 0 1.65 0.95 1.15 1.95 -0.95 0.60 -1.25 1.05 -2.40 1.05 -2.65 0 -0.25 0.45 -1.35 1 -2.50 0.55 -1.10 1 -2.25 1 -2.50 0 -0.20 0.45 -1.35 1 -2.50 0.55 -1.10 1 -2.25 1 -2.50 0 -0.20 0.45 -1.35 1 -2.50 0.55 -1.10 1 -2.25 1 -2.50 0 -0.20 0.45 -1.35 1 -2.50 0.55 -1.10 1 -2.25 1 -2.50 0 -0.20 0.45 -1.35 1 -2.50 0.55 -1.10 1 -2.25 1 -2.50 0 -0.20 0.45 -1.35 1 -2.50 0.55 -1.10 1 -2.30 1 -2.60 0 -0.25 0.25 -1 0.60 -1.65 0.30 -0.60 0.70 -1.45 0.90 -1.85 0.25 -0.55 1.40 -0.80 4.45 -0.90 4.05 -0.15 4.05 -0.15 4.05 25.40 0 25.50 0 25.50 -3.75 25.50 -3.75 0 -3.75 0 -3.75 -17.10 0 -18.25 0 -17.95 -2 -12.65 -1.05 2.75 -2.50 6.25 -3.05 7.35 -0.25 0.50 -0.45 1.15 -0.45 1.40 0 0.30 -0.45 1.50 -1 2.60 -0.55 1.15 -1 2.25 -1 2.50 0 0.25 -0.45 1.35 -0.95 2.55 -0.50 1.15 -1.95 4.65 -3.10 7.70 -2.20 5.65 -2.20 5.65 -5 5.65 -3 0 -2.90 0.05 -4.50 -3.85 -0.30 -0.80 -0.75 -1.80 -1 -2.25 -0.25 -0.50 -0.45 -1.15 -0.45 -1.40 0 -0.30 -0.45 -1.50 -1 -2.60 -0.55 -1.15 -1 -2.25 -1 -2.50 0 -0.25 -0.40 -1.35 -0.95 -2.55 -0.50 -1.15 -1.90 -4.55 -3.05 -7.60 -1.15 -3 -2.55 -6.45 -3.05 -7.60 -0.55 -1.20 -0.95 -2.50 -0.95 -2.90 0 -0.40 -0.20 -0.75 -0.50 -0.75 -0.30 0 -0.50 6 -0.50 17 0 17 0 17 -3.50 17 -2.35 0 -3.60 -0.20 -3.75 -0.60z"/>
  <path d="M134 54.50 c0 -25.50 0 -25.50 3.50 -25.50 3.50 0 3.50 0 3.50 25.50 0 25.50 0 25.50 -3.50 25.50 -3.50 0 -3.50 0 -3.50 -25.50z"/>
 </g>
 <g fill="#01975b">
  <path d="M66.25 138.50 c-0.15 -0.25 -0.75 -0.50 -1.30 -0.50 -0.50 0 -0.95 -0.20 -0.95 -0.50 0 -0.25 -0.30 -0.50 -0.70 -0.50 -0.95 0 -5.30 -4.35 -5.30 -5.30 0 -0.40 -0.20 -0.70 -0.50 -0.70 -0.25 0 -0.50 -0.45 -0.50 -1 0 -0.55 -0.20 -1 -0.45 -1 -0.80 0 -1.20 -3.15 -1.20 -9.50 0 -6.35 0.40 -9.50 1.20 -9.50 0.25 0 0.45 -0.45 0.45 -1 0 -0.55 0.25 -1 0.50 -1 0.30 0 0.50 -0.30 0.50 -0.70 0 -0.95 4.35 -5.30 5.30 -5.30 0.40 0 0.70 -0.15 0.70 -0.40 0 -0.20 0.90 -0.65 2 -1 2.40 -0.75 10 -0.80 10 -0.10 0 0.30 0.35 0.50 0.75 0.50 1.15 0 4.10 2.10 4.80 3.35 0.85 1.55 1.45 0.95 1.45 -1.40 0 -1.95 0 -1.95 3.50 -1.95 3.50 0 3.50 0 3.50 18.50 0 18.50 0 18.50 -3.50 18.50 -3.50 0 -3.50 0 -3.50 -1.95 0 -2.35 -0.60 -2.95 -1.45 -1.40 -0.70 1.25 -3.65 3.35 -4.80 3.35 -0.40 0 -0.75 0.25 -0.75 0.50 0 0.30 -1.90 0.50 -4.70 0.50 -2.65 0 -4.90 -0.20 -5.05 -0.50z m11.60 -8.80 c3.45 -2.60 4.75 -5.45 4.75 -10.20 0 -4.55 -0.60 -6.05 -3.30 -8.75 -2.80 -2.80 -4.75 -3.45 -8.90 -2.85 -3.05 0.40 -7.05 4.40 -7.65 7.60 -0.45 2.70 -0.45 5.55 0 8.20 0.50 2.70 4.85 7.15 7.30 7.45 3 0.35 6.15 -0.20 7.80 -1.45z"/>
  <path d="M140 138.50 c-0.40 -0.20 -1.85 -0.90 -3.15 -1.55 -2.20 -1.05 -3.15 -1.90 -5.95 -5.40 -0.50 -0.60 -0.90 -1.35 -0.90 -1.70 0 -0.40 -0.15 -0.85 -0.35 -1.05 -1.55 -1.55 -2.35 -13.55 -1.10 -16.65 2.60 -6.45 4.45 -8.50 10.05 -11.25 2.20 -1.05 8.65 -1.25 11.40 -0.25 3.85 1.30 7.15 4.30 8.95 8.10 0.65 1.40 1.35 2.90 1.60 3.35 0.25 0.50 0.45 2.90 0.45 5.40 0 4.50 0 4.50 -12.75 4.50 -10.40 0 -12.85 0.15 -13.05 0.70 -0.70 1.80 4 8.30 6 8.30 0.40 0 0.90 0.25 1.05 0.50 0.15 0.30 1.85 0.50 3.75 0.50 1.90 0 3.60 -0.20 3.75 -0.50 0.15 -0.25 0.75 -0.50 1.25 -0.50 0.50 0 1 -0.20 1.10 -0.40 0.20 -0.50 3.40 -2.75 3.60 -2.55 0.05 0.10 0.65 1 1.30 1.95 0.65 0.95 1.40 1.90 1.70 2.10 0.55 0.40 -4.05 4.90 -5.05 4.90 -0.35 0 -0.65 0.25 -0.65 0.50 0 0.30 -0.55 0.50 -1.20 0.50 -0.70 0 -1.40 0.25 -1.55 0.50 -0.35 0.60 -9.20 0.60 -10.25 0z m14 -23.75 c0 -3.75 -5 -7.75 -9.65 -7.75 -4 0 -9.35 4.60 -9.35 8.10 0 0.85 0.60 0.90 9.50 0.90 9.50 0 9.50 0 9.50 -1.25z"/>
  <path d="M0.25 137.40 c-0.15 -0.35 -0.20 -11.80 -0.15 -25.40 0.15 -24.75 0.15 -24.75 4.45 -24.90 4.30 -0.15 4.30 -0.15 5.40 2.15 0.55 1.20 1.05 2.40 1.05 2.65 0 0.25 0.45 1.35 1 2.50 0.55 1.10 1 2.25 1 2.50 0 0.20 0.45 1.35 1 2.50 0.55 1.10 1 2.25 1 2.50 0 0.20 0.45 1.35 1 2.50 0.55 1.10 1 2.30 1 2.60 0 0.25 0.20 0.90 0.45 1.40 0.25 0.45 0.70 1.45 1 2.25 0.30 0.75 0.80 1.95 1.10 2.75 0.75 1.75 1.45 3.55 2 5 0.45 1.10 1.05 2.65 1.90 4.75 0.25 0.60 0.60 1.50 0.75 2 0.45 1.35 1.45 0.15 2.30 -2.75 0.40 -1.35 0.85 -2.40 1 -2.40 0.20 0 0.65 -1.10 1 -2.50 0.35 -1.35 0.80 -2.50 1 -2.50 0.20 0 0.65 -1.15 1 -2.50 0.35 -1.40 0.80 -2.50 1 -2.50 0.20 0 0.65 -1.15 1 -2.50 0.35 -1.40 0.80 -2.50 1 -2.50 0.20 0 0.65 -1.10 1 -2.50 0.35 -1.40 0.80 -2.50 1 -2.50 0.20 0 0.65 -1.15 1 -2.50 0.35 -1.40 0.80 -2.50 1 -2.50 0.20 0 0.65 -1.15 1 -2.50 0.35 -1.40 0.85 -2.50 1.05 -2.50 0.20 0 0.45 -0.60 0.55 -1.35 0.15 -1.40 0.15 -1.40 4.55 -1.55 4.35 -0.15 4.35 -0.15 4.35 25.40 0 25.55 0 25.55 -3.80 25.40 -3.75 -0.15 -3.75 -0.15 -3.70 -16 0 -12.80 -0.10 -15.90 -0.65 -15.90 -0.35 0 -0.95 1.05 -1.30 2.40 -0.40 1.30 -0.90 2.70 -1.10 3.10 -0.35 0.80 -1.15 2.75 -1.90 4.65 -0.20 0.60 -0.70 1.80 -1.05 2.60 -0.35 0.85 -0.85 2 -1.05 2.65 -1.30 3.25 -2.50 6.25 -3 7.20 -0.25 0.50 -0.45 1.10 -0.45 1.40 0 0.30 -0.40 1.45 -0.95 2.65 -0.50 1.15 -1.20 2.85 -1.55 3.75 -0.65 1.65 -0.65 1.65 -3.65 1.50 -3.10 -0.15 -3.10 -0.15 -4.35 -3.15 -0.35 -0.80 -0.80 -1.85 -0.95 -2.25 -0.20 -0.40 -0.70 -1.80 -1.10 -3.10 -0.35 -1.35 -0.80 -2.40 -0.95 -2.40 -0.20 0 -0.65 -1.10 -1 -2.50 -0.35 -1.35 -0.80 -2.50 -1 -2.50 -0.15 0 -0.60 -1.05 -0.95 -2.30 -0.40 -1.25 -1.10 -3.15 -1.60 -4.25 -0.55 -1.05 -0.95 -2.15 -0.95 -2.45 0 -0.25 -0.20 -0.90 -0.45 -1.40 -0.25 -0.45 -0.70 -1.50 -1.05 -2.35 -0.35 -0.80 -0.80 -1.90 -1.05 -2.35 -0.25 -0.50 -0.45 -1.35 -0.45 -1.90 0 -0.55 -0.20 -1 -0.50 -1 -0.30 0 -0.50 6 -0.50 17 0 17 0 17 -3.75 17 -2.55 0 -3.85 -0.20 -4 -0.60z"/>
  <path d="M97 112.50 c0 -25.50 0 -25.50 3.50 -25.50 3.50 0 3.50 0 3.50 14.90 0 8.20 0.15 15.05 0.30 15.25 0.20 0.15 1.15 -0.80 2.15 -2.10 1 -1.35 2.80 -3.60 4.05 -5.05 1.25 -1.45 2.60 -3.10 3 -3.70 0.40 -0.60 1.15 -1.50 1.65 -2.05 0.55 -0.55 1.30 -1.50 1.70 -2.10 0.70 -1.05 1.15 -1.15 5.45 -1.15 2.60 0 4.70 0.20 4.70 0.45 0 0.25 -0.15 0.55 -0.35 0.65 -0.25 0.10 -1.40 1.40 -2.65 2.90 -1.25 1.50 -2.55 3.05 -2.90 3.40 -0.35 0.40 -1.25 1.50 -2 2.50 -0.75 1 -2.20 2.75 -3.20 3.85 -1.70 1.80 -2.55 4.25 -1.50 4.25 0.20 0 0.80 0.65 1.25 1.50 0.50 0.80 1.15 1.75 1.50 2.10 0.35 0.35 1.20 1.45 1.85 2.40 0.65 0.95 1.35 1.85 1.50 2 0.15 0.15 0.85 1.05 1.50 2 0.65 0.95 1.35 1.85 1.50 2 0.15 0.15 0.85 1.05 1.50 2 0.70 0.95 1.60 2.20 2.10 2.70 1.75 1.90 1.20 2.30 -3.35 2.30 -3.65 0 -4.30 -0.15 -4.75 -0.95 -0.25 -0.55 -0.80 -1.25 -1.15 -1.65 -0.35 -0.35 -1.20 -1.45 -1.85 -2.40 -0.65 -0.95 -1.35 -1.85 -1.50 -2 -0.15 -0.15 -0.65 -0.70 -1.05 -1.30 -1.30 -1.95 -4.60 -5.70 -4.95 -5.70 -0.20 0 -1.30 1.20 -2.45 2.65 -2.05 2.70 -2.05 2.70 -2.05 7 0 4.35 0 4.35 -3.50 4.35 -3.50 0 -3.50 0 -3.50 -25.50z"/>
  <path d="M167 119.50 c0 -18.50 0 -18.50 3.50 -18.50 3.50 0 3.50 0 3.50 3 0 1.65 0.20 3 0.50 3 0.30 0 0.50 -0.30 0.50 -0.65 0 -1.10 3.45 -4.75 5.20 -5.60 1.05 -0.50 2.65 -0.75 4.10 -0.65 2.45 0.15 2.45 0.15 2.60 4.05 0.15 3.85 0.15 3.85 -2.90 3.85 -1.65 0 -3 0.20 -3 0.50 0 0.30 -0.25 0.50 -0.55 0.50 -1.90 0 -4.80 3.90 -5.75 7.75 -0.20 0.85 -0.45 5.95 -0.55 11.40 -0.20 9.85 -0.20 9.85 -3.65 9.85 -3.50 0 -3.50 0 -3.50 -18.50z"/>
 </g>
</svg>